<?xml version="1.0" encoding="utf-8"?>
<!-- Generator: Adobe Illustrator 26.0.3, SVG Export Plug-In . SVG Version: 6.00 Build 0)  -->
<svg version="1.1" id="Capa_1" xmlns="http://www.w3.org/2000/svg" xmlns:xlink="http://www.w3.org/1999/xlink" x="0px" y="0px"
	 viewBox="0 0 72 72" style="enable-background:new 0 0 72 72;" xml:space="preserve">
<style type="text/css">
	.st0{fill:#AA89BE;}
	.st1{fill:#009E92;}
	.st2{fill:#FFFFFF;}
	.st3{fill:#AFC92E;}
</style>
<g>
	<g>
		<g>
			<g>
				<path class="st0" d="M14.9,46.4l18.6,22.7c1.1,1.4,3.2,1.6,4.6,0.5c0.2-0.1,0.3-0.3,0.5-0.5l18.6-22.7
					c9.6-11.7,7.9-28.9-3.8-38.5c-11.7-9.6-28.9-7.9-38.5,3.8C6.5,22,6.8,36.5,14.9,46.4z"/>
				
					<ellipse transform="matrix(1 -3.641046e-03 3.641046e-03 1 -0.1051 0.1313)" class="st0" cx="36" cy="28.9" rx="20.2" ry="20.2"/>
			</g>
			<g>
				<path class="st0" d="M14.9,46.4l18.6,22.7c1.1,1.4,3.2,1.6,4.6,0.5c0.2-0.1,0.3-0.3,0.5-0.5l18.6-22.7
					c9.6-11.7,7.9-28.9-3.8-38.5c-11.7-9.6-28.9-7.9-38.5,3.8C6.5,22,6.8,36.5,14.9,46.4z"/>
				
					<ellipse transform="matrix(1 -3.641046e-03 3.641046e-03 1 -0.1051 0.1313)" class="st0" cx="36" cy="28.9" rx="20.2" ry="20.2"/>
			</g>
			<g>
				<path class="st0" d="M14.9,46.4l18.6,22.7c1.1,1.4,3.2,1.6,4.6,0.5c0.2-0.1,0.3-0.3,0.5-0.5l18.6-22.7
					c9.6-11.7,7.9-28.9-3.8-38.5c-11.7-9.6-28.9-7.9-38.5,3.8C6.5,22,6.8,36.5,14.9,46.4z"/>
				
					<ellipse transform="matrix(1 -3.641046e-03 3.641046e-03 1 -0.1051 0.1313)" class="st0" cx="36" cy="28.9" rx="20.2" ry="20.2"/>
			</g>
		</g>
	</g>
	<g>
		<g>
			<g>
				<path class="st1" d="M14.9,46.4l18.6,22.7c1.1,1.4,3.2,1.6,4.6,0.5c0.2-0.1,0.3-0.3,0.5-0.5l18.6-22.7
					c9.6-11.7,7.9-28.9-3.8-38.5c-11.7-9.6-28.9-7.9-38.5,3.8C6.5,22,6.8,36.5,14.9,46.4z"/>
				
					<ellipse transform="matrix(1 -3.641046e-03 3.641046e-03 1 -0.1051 0.1313)" class="st1" cx="36" cy="28.9" rx="20.2" ry="20.2"/>
			</g>
			<g>
				<path class="st0" d="M14.9,46.4l18.6,22.7c1.1,1.4,3.2,1.6,4.6,0.5c0.2-0.1,0.3-0.3,0.5-0.5l18.6-22.7
					c9.6-11.7,7.9-28.9-3.8-38.5c-11.7-9.6-28.9-7.9-38.5,3.8C6.5,22,6.8,36.5,14.9,46.4z"/>
				
					<ellipse transform="matrix(1 -3.641046e-03 3.641046e-03 1 -0.1051 0.1313)" class="st2" cx="36" cy="28.9" rx="20.2" ry="20.2"/>
			</g>
		</g>
	</g>
</g>
<g>
	<path class="st0" d="M28.4,12.9h7.9c0.9,0,1.7,0.1,2.5,0.2c0.8,0.2,1.6,0.7,2.4,1.3c0.7,0.5,1.2,1.2,1.7,2.2c0.4,0.9,0.7,2,0.7,3.2
		c0,1.7-0.6,3.2-1.7,4.6c-1.2,1.4-2.9,2.2-5.1,2.2h-5v8.8h-3.3V12.9z M31.7,23.4h4.9c1.2,0,2.2-0.4,2.8-1.2c0.6-0.7,0.9-1.6,0.9-2.5
		c0-0.8-0.1-1.4-0.4-1.9c-0.3-0.5-0.6-0.8-1.1-1.1c-0.7-0.4-1.5-0.7-2.4-0.6h-4.8V23.4z"/>
	<rect x="28.4" y="38" class="st3" width="14.2" height="5.5"/>
</g>
</svg>
