<?xml version="1.0" encoding="utf-8"?>
<!-- Generator: Adobe Illustrator 26.0.3, SVG Export Plug-In . SVG Version: 6.00 Build 0)  -->
<svg version="1.1" id="Capa_1" xmlns="http://www.w3.org/2000/svg" xmlns:xlink="http://www.w3.org/1999/xlink" x="0px" y="0px"
	 viewBox="0 0 72 72" style="enable-background:new 0 0 72 72;" xml:space="preserve">
<style type="text/css">
	.st0{fill:#009E92;}
	.st1{fill:#FFFFFF;}
	.st2{fill:none;}
	.st3{fill:#FFCC00;}
</style>
<g>
	<g>
		<g>
			<path class="st0" d="M14.9,46.4l18.6,22.7c1.1,1.4,3.2,1.6,4.6,0.5c0.2-0.1,0.3-0.3,0.5-0.5l18.6-22.7
				c9.6-11.7,7.9-28.9-3.8-38.5c-11.7-9.6-28.9-7.9-38.5,3.8C6.5,22,6.8,36.5,14.9,46.4z"/>
			
				<ellipse transform="matrix(1 -3.641046e-03 3.641046e-03 1 -0.1051 0.1313)" class="st0" cx="36" cy="28.9" rx="20.2" ry="20.2"/>
		</g>
		<g>
			<path class="st0" d="M14.9,46.4l18.6,22.7c1.1,1.4,3.2,1.6,4.6,0.5c0.2-0.1,0.3-0.3,0.5-0.5l18.6-22.7
				c9.6-11.7,7.9-28.9-3.8-38.5c-11.7-9.6-28.9-7.9-38.5,3.8C6.5,22,6.8,36.5,14.9,46.4z"/>
			
				<ellipse transform="matrix(1 -3.641046e-03 3.641046e-03 1 -0.1051 0.1313)" class="st1" cx="36" cy="28.9" rx="20.2" ry="20.2"/>
		</g>
		<g>
			<path class="st2" d="M14.9,46.4l18.6,22.7c1.1,1.4,3.2,1.6,4.6,0.5c0.2-0.1,0.3-0.3,0.5-0.5l18.6-22.7
				c9.6-11.7,7.9-28.9-3.8-38.5c-11.7-9.6-28.9-7.9-38.5,3.8C6.5,22,6.8,36.5,14.9,46.4z"/>
			
				<ellipse transform="matrix(1 -3.641046e-03 3.641046e-03 1 -0.1051 0.1313)" class="st2" cx="36" cy="28.9" rx="20.2" ry="20.2"/>
		</g>
	</g>
	<g>
		<path class="st0" d="M49.4,29.3c0-7.5-6.1-13.7-13.7-13.7h-5.7c-0.8,0-1.5,0.7-1.5,1.5c0,0.8,0.7,1.5,1.5,1.5h5.7
			c5.9,0,10.7,4.8,10.7,10.7c0,5.9-4.8,10.7-10.7,10.7h-5.7c-0.8,0-1.5,0.7-1.5,1.5c0,0.8,0.7,1.5,1.5,1.5h5.7
			C43.3,42.9,49.4,36.8,49.4,29.3"/>
		<path class="st3" d="M36.1,27.5h-4.5V23c0-0.8-0.7-1.5-1.5-1.5c-0.8,0-1.5,0.7-1.5,1.5v4.5h-4.5c-0.8,0-1.5,0.7-1.5,1.5
			c0,0.8,0.7,1.5,1.5,1.5h4.5V35c0,0.8,0.7,1.5,1.5,1.5c0.8,0,1.5-0.7,1.5-1.5v-4.5h4.5c0.8,0,1.5-0.7,1.5-1.5
			C37.6,28.2,36.9,27.5,36.1,27.5"/>
	</g>
</g>
</svg>
